<?xml version="1.0" standalone="no"?>
<!DOCTYPE svg PUBLIC "-//W3C//DTD SVG 20010904//EN"
 "http://www.w3.org/TR/2001/REC-SVG-20010904/DTD/svg10.dtd">
<svg version="1.0" xmlns="http://www.w3.org/2000/svg"
 width="300.000000pt" height="188.000000pt" viewBox="0 0 300.000000 188.000000"
 preserveAspectRatio="xMidYMid meet">
<metadata>
Created by potrace 1.10, written by Peter Selinger 2001-2011
</metadata>
<g transform="translate(0.000000,188.000000) scale(0.100000,-0.100000)"
fill="#f5f507" stroke="none">
<path d="M200 1671 c0 -53 8 -75 79 -222 44 -91 86 -193 95 -229 34 -154 37
-172 24 -187 -10 -13 -9 -15 7 -11 11 2 20 11 20 20 0 10 8 25 18 35 16 16 17
16 17 0 0 -11 5 -15 11 -11 6 3 8 17 5 30 -5 17 0 30 16 46 30 30 34 58 8 51
-11 -3 -20 -10 -20 -17 0 -6 -5 -4 -10 4 -5 8 -10 22 -10 30 0 13 1 13 10 0 8
-13 10 -12 10 3 0 9 7 17 15 17 8 0 15 -4 15 -10 0 -5 7 -10 15 -10 13 0 14
-4 4 -21 -11 -21 -9 -22 19 -16 27 5 102 -8 102 -18 0 -3 -9 -19 -20 -37 -11
-18 -20 -41 -20 -51 0 -14 -5 -17 -20 -13 -11 3 -29 8 -40 12 -34 9 -102 -18
-119 -48 -9 -15 -19 -28 -23 -28 -5 0 -8 -10 -8 -22 0 -21 0 -21 14 -2 13 16
14 17 12 2 -3 -26 -12 -31 -35 -18 -28 14 -27 36 2 44 20 6 21 7 4 17 -19 11
-41 3 -32 -12 4 -5 0 -9 -9 -9 -9 0 -17 14 -21 40 -7 41 -64 165 -109 235
l-25 40 -1 -117 c0 -69 4 -119 10 -123 15 -9 67 -115 96 -195 l24 -68 -27 -29
-28 -28 -37 75 -36 75 -1 -90 c-1 -81 3 -99 32 -171 l34 -81 -28 -31 c-17 -19
-30 -26 -33 -19 -2 7 -5 -48 -5 -121 0 -112 3 -131 14 -122 8 6 11 18 8 26 -3
8 0 14 6 14 6 0 8 6 5 14 -3 8 0 17 7 22 9 5 10 2 6 -9 -3 -10 -2 -17 4 -17
16 0 22 29 10 44 -16 19 0 58 35 85 90 71 229 33 318 -89 23 -31 48 -72 55
-89 13 -30 15 -31 75 -30 51 0 58 2 42 12 -10 7 -32 23 -47 35 l-29 24 -1 -24
c0 -12 -8 4 -18 37 -27 93 -56 150 -101 199 -100 108 -238 115 -299 15 -10
-17 -21 -26 -25 -21 -3 5 1 15 10 22 8 7 12 20 9 28 -3 8 0 21 6 29 10 11 14
11 21 1 6 -8 7 0 4 23 -5 25 -2 40 8 48 11 9 15 9 20 -1 3 -7 3 -3 1 8 -8 31
52 58 114 52 117 -11 231 -162 231 -305 0 -29 4 -42 11 -37 6 3 9 15 6 25 -7
27 0 24 50 -22 56 -52 142 -91 271 -123 87 -23 242 -36 242 -22 0 3 -5 17 -11
33 l-11 28 -12 -24 c-12 -21 -14 -21 -20 -6 -8 22 -3 27 28 28 16 0 28 6 31
18 20 60 141 79 228 36 25 -13 44 -20 41 -15 -3 4 3 8 13 8 29 0 118 45 187
95 35 25 67 45 71 45 4 0 21 10 38 22 18 12 29 18 25 13 -4 -4 -3 -13 2 -20 7
-8 -3 -21 -33 -43 -23 -17 -71 -53 -107 -81 -35 -27 -83 -56 -106 -63 -24 -6
-41 -15 -38 -19 2 -4 -19 1 -46 12 -90 34 -174 20 -219 -37 l-23 -29 47 -3
c31 -2 60 3 89 17 46 23 111 27 165 11 52 -15 124 23 225 117 123 116 179 162
161 134 -3 -6 3 -14 12 -20 10 -6 13 -11 6 -11 -6 0 -48 -43 -93 -96 -45 -53
-103 -109 -128 -125 l-46 -29 60 0 c57 0 62 2 101 43 23 23 59 67 80 98 21 31
60 80 86 109 37 41 51 50 67 45 21 -7 21 -7 -3 -38 -13 -18 -46 -70 -74 -117
-29 -47 -61 -95 -72 -107 -12 -12 -21 -25 -21 -28 0 -3 22 -5 48 -5 l48 0 36
63 c20 34 53 95 73 136 20 41 48 92 62 113 28 42 28 42 -4 52 -23 7 -32 -7
-13 -19 15 -9 12 -22 -4 -22 -8 0 -12 6 -9 14 4 9 -2 12 -18 9 -36 -5 -77 29
-89 75 -13 46 -6 87 21 142 11 20 16 37 11 37 -5 0 -7 13 -4 29 2 16 -2 47 -9
68 -7 21 -12 49 -11 63 1 18 -2 15 -9 -10 -6 -19 -15 -40 -20 -46 -6 -7 -6
-21 0 -36 19 -49 14 -102 -13 -158 -39 -82 -33 -141 18 -183 17 -14 17 -16 3
-11 -15 6 -17 3 -11 -20 5 -22 3 -25 -11 -20 -13 5 -14 9 -3 15 10 7 9 9 -4 9
-9 0 -29 11 -45 24 -39 33 -37 89 6 157 33 53 39 97 22 156 -7 25 -6 33 6 38
9 3 13 8 10 12 -4 3 -14 0 -23 -8 -9 -8 -40 -14 -68 -15 -28 -1 -56 -2 -63 -3
-6 0 -13 -22 -16 -48 -9 -94 -38 -173 -63 -173 -7 0 -26 -14 -44 -30 -27 -25
-31 -36 -28 -64 3 -27 0 -36 -14 -39 -10 -3 -16 -1 -13 3 3 5 1 11 -5 15 -5 3
-10 19 -10 34 0 30 28 60 73 79 45 19 92 148 68 189 -9 15 -10 13 -11 -15 0
-18 -4 -40 -9 -50 -5 -9 -17 -37 -27 -60 -15 -37 -26 -48 -71 -68 -44 -19 -54
-28 -59 -54 -7 -35 -27 -35 -32 -1 -5 30 22 58 62 65 18 4 42 16 53 29 30 33
77 138 65 146 -6 4 -13 27 -15 51 -3 30 -4 23 -3 -20 1 -59 -3 -70 -37 -123
-21 -32 -44 -60 -50 -61 -7 -2 -31 -9 -54 -15 -32 -9 -44 -18 -49 -36 -9 -35
-30 -38 -32 -5 -3 34 28 60 69 60 43 0 56 9 92 59 30 41 34 55 35 110 1 43 -4
72 -16 90 -16 25 -16 25 1 12 19 -15 24 1 4 17 -9 8 -17 3 -29 -18 -9 -17 -12
-30 -6 -32 5 -2 15 -31 22 -65 l13 -61 -47 -51 c-43 -47 -50 -51 -93 -51 -36
0 -50 -5 -59 -20 -16 -25 -28 -26 -28 -1 0 28 26 44 62 38 37 -5 61 4 100 41
20 19 25 29 17 38 -6 7 -9 18 -8 26 2 7 -2 23 -9 36 -7 12 -10 27 -6 33 7 12
34 -53 34 -83 0 -10 4 -18 8 -18 8 0 8 33 2 95 -2 17 -3 17 -11 -5 -8 -23 -8
-22 -5 8 3 35 -5 40 -24 17 -7 -8 -16 -13 -20 -10 -5 3 -11 1 -15 -5 -4 -6
-12 -7 -18 -3 -7 3 -4 -2 5 -13 27 -31 2 -54 -56 -54 -32 0 -45 -4 -40 -11 4
-7 24 -9 53 -5 32 4 40 3 26 -3 -11 -5 -33 -10 -49 -10 -23 -1 -27 -4 -18 -13
9 -9 20 -8 50 1 30 10 40 20 49 49 9 28 9 39 0 45 -8 6 -7 7 3 4 8 -2 14 -13
12 -23 -2 -10 -5 -30 -6 -43 -5 -42 -68 -63 -119 -40 -18 8 -30 8 -46 0 -17
-10 -21 -9 -21 4 0 14 21 20 60 16 11 -1 10 3 -4 14 -23 17 -36 19 -36 5 0
-23 -19 -8 -23 18 -3 21 -4 19 -6 -11 -1 -36 -2 -37 -25 -25 -42 23 -96 97
-96 132 0 46 -19 95 -40 106 -17 9 -16 4 6 -50 24 -61 30 -95 17 -103 -5 -2
-3 -3 3 -1 14 3 47 -53 39 -65 -3 -5 0 -13 6 -17 8 -4 9 -3 5 4 -4 7 -2 12 3
12 6 0 11 -4 11 -10 0 -5 5 -10 11 -10 6 0 28 -13 48 -30 35 -27 39 -28 54
-12 15 14 21 14 52 3 33 -11 39 -10 81 14 57 34 70 26 16 -10 -34 -22 -47 -25
-84 -20 -33 5 -47 3 -56 -8 -10 -12 -23 -9 -85 23 -39 21 -85 41 -101 44 l-29
7 29 -24 c16 -14 61 -37 99 -52 39 -15 74 -31 79 -36 21 -19 -3 -17 -75 5 -79
24 -129 51 -129 69 0 5 -14 23 -32 40 -25 24 -42 31 -80 33 -26 2 -48 -1 -48
-6 0 -6 -7 -10 -15 -10 -8 0 -15 -4 -15 -10 0 -5 -10 -10 -22 -10 -19 0 -20 2
-6 18 8 9 18 24 22 32 5 9 2 8 -7 -2 -8 -10 -16 -15 -19 -13 -3 3 -10 -6 -16
-20 -10 -22 -9 -25 8 -25 24 0 43 -34 35 -60 -7 -21 -25 -28 -25 -9 0 6 -9 24
-21 40 -14 21 -29 29 -49 29 -27 0 -29 2 -19 24 10 20 5 31 -35 86 -26 35 -54
89 -65 125 -18 57 -18 67 -5 111 21 70 18 176 -6 223 -47 94 -141 121 -210 61
-19 -16 -29 -29 -22 -30 6 0 12 5 12 10 0 6 5 10 10 10 7 0 7 -7 0 -21 -11
-20 -12 -20 -31 -3 -12 11 -17 24 -13 37 4 13 2 17 -5 13 -6 -4 -11 -23 -11
-42 0 -29 -3 -34 -22 -34 -21 1 -21 2 -5 11 9 5 17 20 17 32 0 13 5 28 12 35
7 7 8 12 2 12 -7 0 -6 21 2 63 6 34 14 95 17 135 l4 72 -74 0 c-73 0 -75 -1
-70 -22 22 -89 30 -300 18 -430 -1 -3 -15 -11 -32 -17 -17 -6 -28 -15 -24 -21
3 -5 2 -10 -3 -10 -5 0 -14 39 -21 88 -6 48 -32 160 -58 249 l-48 163 -72 0
-73 0 0 -59z m148 -48 c53 -180 63 -223 77 -323 18 -128 18 -130 2 -130 -7 0
-20 29 -30 69 -10 38 -52 137 -93 221 -58 119 -74 161 -74 196 l0 44 48 0 47
0 23 -77z m268 -10 c-15 -180 -20 -208 -38 -211 -16 -3 -18 6 -18 86 0 49 -3
117 -6 151 l-7 61 38 0 38 0 -7 -87z m209 -202 c44 -25 66 -70 68 -141 3 -71
-7 -88 -17 -31 -8 51 -61 121 -111 146 -22 11 -42 21 -44 22 -2 2 2 9 9 18 14
17 48 12 95 -14z m-95 -41 c68 -19 130 -112 130 -195 0 -21 6 -35 16 -39 15
-6 15 -8 0 -25 -9 -10 -21 -35 -27 -54 -7 -26 -14 -34 -24 -30 -20 7 -19 32 2
40 15 6 15 7 -3 14 -30 12 -109 10 -122 -3 -31 -31 -7 -69 47 -74 51 -4 80
-19 91 -47 9 -22 9 -22 9 -1 1 31 -31 55 -86 62 -43 6 -48 10 -48 32 0 22 5
25 39 28 21 2 43 -1 49 -7 8 -8 -3 -11 -37 -11 -34 0 -46 -4 -43 -12 2 -8 16
-12 33 -10 42 3 107 -37 118 -73 4 -17 15 -42 22 -57 8 -14 14 -45 14 -67 0
-40 1 -41 33 -41 28 0 43 -10 88 -58 83 -90 126 -147 106 -139 -10 4 -20 2
-22 -6 -3 -7 -58 38 -132 108 -115 111 -125 123 -114 142 14 27 14 53 1 53 -6
0 -9 -3 -8 -7 2 -13 -14 -67 -25 -80 -6 -9 -22 -11 -47 -7 -24 4 -40 2 -45 -6
-5 -8 1 -11 21 -8 24 2 35 -5 66 -43 20 -26 83 -81 140 -122 132 -97 179 -145
172 -174 l-6 -22 -32 23 c-17 13 -73 49 -125 81 -117 70 -159 104 -202 161
-28 38 -35 42 -40 27 -5 -11 -7 -2 -6 22 2 35 -1 40 -21 43 -19 3 -23 0 -18
-15 12 -38 24 -119 22 -143 -2 -14 -1 -17 1 -8 3 13 17 4 62 -41 44 -44 87
-73 182 -121 188 -95 239 -129 239 -162 0 -33 0 -33 -42 -9 -18 11 -76 35
-128 54 -137 49 -214 91 -270 145 -48 47 -50 48 -51 23 -1 -14 -5 1 -9 34 -16
129 -81 238 -165 276 -50 23 -87 24 -132 3 -47 -23 -69 -58 -55 -88 6 -13 8
-27 4 -30 -3 -4 -11 8 -17 26 -9 26 -8 36 2 49 8 9 16 26 18 39 2 12 7 25 11
29 4 3 4 -2 1 -11 -8 -22 11 -24 19 -3 4 8 1 22 -6 30 -10 12 -6 21 23 50 31
31 41 35 87 35 58 0 82 -10 126 -51 l30 -29 19 20 c11 13 25 18 37 14 30 -9
11 20 -21 33 -82 31 -83 179 0 220 29 15 92 17 137 4 18 -6 30 -6 27 -1 -3 5
-19 11 -35 15 -16 4 -39 19 -51 33 -62 80 -170 94 -221 29 -14 -17 -18 -18
-18 -6 0 9 9 24 20 34 11 10 17 21 15 25 -3 4 4 10 15 13 12 3 18 1 14 -5 -4
-6 -1 -9 7 -6 7 2 17 19 21 36 6 24 16 34 41 41 43 12 37 12 77 1z m-139 -10
c5 0 9 -4 9 -10 0 -5 -7 -10 -15 -10 -8 0 -15 4 -15 10 0 5 -7 6 -17 3 -11 -4
-14 -3 -9 6 5 7 15 10 23 7 8 -3 19 -6 24 -6z m-31 -40 c0 -5 -2 -10 -4 -10
-3 0 -8 5 -11 10 -3 6 -1 10 4 10 6 0 11 -4 11 -10z m136 -91 c34 -28 2 -42
-78 -33 -58 7 -70 18 -45 43 14 15 101 8 123 -10z m-435 -81 c38 -75 80 -212
67 -223 -7 -7 -12 -5 -16 5 -3 8 -23 48 -44 89 -29 56 -38 86 -38 123 0 26 2
48 5 48 2 0 14 -19 26 -42z m219 2 c0 -5 -9 -10 -21 -10 -11 0 -17 5 -14 10 3
6 13 10 21 10 8 0 14 -4 14 -10z m-30 -38 c-7 -3 -16 0 -18 7 -2 6 -9 8 -14 5
-7 -4 -8 -2 -4 4 5 9 13 9 29 0 17 -8 18 -13 7 -16z m135 -94 c5 -5 34 -78 32
-78 -2 0 -20 9 -42 20 -23 12 -59 20 -87 20 -49 0 -59 9 -34 29 24 20 69 28
100 20 16 -5 30 -10 31 -11z m-216 -68 c11 -24 11 -24 -3 -6 -9 11 -16 24 -16
30 0 12 5 7 19 -24z m1400 -54 l-1 -31 -8 30 c-4 17 -11 39 -15 50 -7 20 -6
20 9 1 9 -11 16 -34 15 -50z m-1389 14 c0 -5 -4 -10 -10 -10 -5 0 -10 -7 -10
-15 0 -9 -10 -15 -26 -15 -15 0 -23 4 -19 11 4 6 10 8 13 5 3 -3 11 3 19 14
15 21 33 27 33 10z m608 -61 c3 -35 3 -35 -33 -31 -37 4 -49 22 -14 22 12 0
17 4 14 11 -4 6 -13 8 -21 5 -9 -4 -14 2 -14 15 0 17 5 20 33 17 29 -3 32 -6
35 -39z m947 -23 c9 -80 -4 -123 -49 -158 -41 -33 -62 -87 -46 -118 9 -16 8
-22 -5 -26 -8 -3 -12 -10 -9 -15 3 -5 3 -9 0 -9 -10 0 -36 59 -36 80 0 28 35
77 60 85 32 10 52 61 57 147 3 43 9 78 14 78 4 0 10 -29 14 -64z m65 38 c6
-14 10 -47 10 -75 0 -40 -6 -57 -35 -94 -45 -60 -54 -107 -27 -144 l20 -27
-29 -2 c-21 -2 -33 4 -45 23 -23 36 -11 82 34 128 l37 38 0 90 c0 66 3 89 13
89 7 0 17 -12 22 -26z m-1660 -39 c0 -5 -5 -3 -10 5 -5 8 -10 20 -10 25 0 6 5
3 10 -5 5 -8 10 -19 10 -25z m1356 -13 c-12 -11 -18 7 -10 30 l8 23 4 -23 c2
-13 1 -26 -2 -30z m-417 -17 c17 -20 31 -40 31 -45 0 -5 12 -20 27 -34 28 -26
89 -45 159 -49 22 -1 49 -10 59 -20 18 -16 15 -17 -61 -11 -103 7 -160 28
-179 64 -21 41 -72 80 -106 80 -33 0 -73 -34 -65 -55 3 -8 1 -17 -5 -21 -19
-12 -20 4 -2 38 10 18 18 38 18 44 1 24 29 44 60 44 25 0 40 -8 64 -35z m-684
-52 c29 -32 66 -103 59 -114 -2 -4 -25 14 -50 41 -58 62 -114 85 -184 76 -40
-5 -50 -4 -50 7 0 24 29 41 79 47 53 7 105 -13 146 -57z m409 -102 c-9 -12
-166 128 -158 141 3 5 41 -24 83 -64 43 -40 76 -75 75 -77z m-742 58 c2 -12
-2 -24 -8 -26 -12 -4 -24 27 -24 67 l0 24 15 -21 c8 -12 16 -31 17 -44z m63
28 c0 -26 -20 -25 -23 2 -3 16 1 22 10 19 7 -3 13 -12 13 -21z m-25 -27 c12
-23 12 -24 -3 -11 -10 7 -17 20 -17 29 0 18 3 16 20 -18z m957 13 c19 -9 46
-33 60 -54 28 -43 81 -61 172 -59 93 3 121 0 121 -9 0 -13 -162 -35 -204 -27
-23 4 -50 21 -75 46 -61 62 -118 76 -163 40 l-25 -19 -1 29 c0 20 7 36 25 50
31 24 45 25 90 3z m-304 -199 c100 -60 84 -64 -28 -5 -73 38 -185 138 -185
165 0 10 23 -7 61 -44 33 -33 102 -85 152 -116z m177 156 c0 -5 -5 -10 -11
-10 -5 0 -7 5 -4 10 3 6 8 10 11 10 2 0 4 -4 4 -10z m-825 -10 c-3 -5 -11 -10
-16 -10 -6 0 -7 5 -4 10 3 6 11 10 16 10 6 0 7 -4 4 -10z m-5 -30 c0 -5 -11
-9 -25 -8 -14 1 -25 6 -25 10 0 4 11 8 25 8 14 0 25 -4 25 -10z m993 -31 c12
-6 36 -25 54 -42 40 -38 105 -46 200 -24 111 25 133 28 134 14 0 -9 2 -9 6 1
5 14 23 17 23 3 0 -15 -195 -71 -249 -71 -40 0 -59 6 -95 31 -31 22 -60 33
-95 37 -47 4 -53 2 -80 -27 -17 -18 -32 -27 -36 -21 -3 5 -1 10 5 10 6 0 8 5
5 10 -4 7 -13 7 -25 0 -16 -8 -18 -8 -14 5 3 8 10 12 15 10 5 -3 11 6 15 20
12 49 83 71 137 44z m808 -11 c11 -21 11 -22 -4 -9 -10 7 -17 17 -17 22 0 15
9 10 21 -13z m-951 -2 c0 -2 -6 -9 -13 -15 -10 -8 -14 -7 -14 4 0 8 6 15 14
15 7 0 13 -2 13 -4z m-685 -27 c57 -14 128 -77 160 -140 14 -27 25 -51 25 -55
0 -4 -27 19 -60 50 -85 81 -151 103 -247 82 -29 -7 -33 -5 -33 13 0 21 23 37
69 52 36 10 37 10 86 -2z m1715 -18 c0 -4 -7 -8 -15 -8 -8 0 -15 4 -15 8 0 4
-8 6 -17 4 -10 -1 -12 0 -5 2 6 3 12 9 12 14 0 6 8 5 20 -1 11 -6 20 -14 20
-19z m-380 -22 c0 -6 -7 -9 -15 -5 -8 3 -14 1 -12 -4 2 -9 -93 -64 -170 -100
-58 -26 -118 -27 -173 -1 -100 46 -204 10 -204 -72 0 -40 -11 -41 -18 -2 -3
14 -1 25 5 25 6 0 3 8 -6 18 -24 27 -21 50 12 83 23 23 38 29 71 29 50 0 106
-22 144 -58 16 -15 26 -22 23 -16 -4 7 11 13 44 17 27 3 84 22 127 40 126 56
172 69 172 46z m110 -20 c0 -6 -4 -7 -10 -4 -5 3 -10 11 -10 16 0 6 5 7 10 4
6 -3 10 -11 10 -16z m125 11 c3 -5 -1 -10 -9 -10 -9 0 -16 5 -16 10 0 6 4 10
9 10 6 0 13 -4 16 -10z m-1776 -19 c8 -5 11 -16 8 -26 -8 -20 -23 -13 -30 15
-6 22 0 25 22 11z m961 5 c0 -2 -7 -7 -16 -10 -8 -3 -12 -2 -9 4 6 10 25 14
25 6z m-927 -20 c3 -8 0 -19 -7 -25 -10 -9 -12 -6 -8 14 5 29 8 31 15 11z
m456 -20 c57 -54 146 -99 324 -161 26 -9 47 -20 47 -24 0 -14 -183 39 -255 73
-75 36 -155 99 -155 122 0 20 10 17 39 -10z m434 -8 c7 -4 6 -12 -2 -22 -18
-21 -30 -20 -26 2 2 9 4 26 5 37 1 15 3 16 7 5 3 -8 11 -18 16 -22z m-943 1
c0 -6 -4 -7 -10 -4 -5 3 -10 11 -10 16 0 6 5 7 10 4 6 -3 10 -11 10 -16z
m1887 -46 c-44 -93 -68 -133 -77 -133 -6 0 -10 2 -10 5 0 8 101 175 105 175 2
0 -6 -21 -18 -47z m-1871 25 c-3 -23 -17 -38 -33 -38 -13 0 -12 5 7 25 27 29
29 30 26 13z m928 -60 c-10 -16 -22 -7 -17 13 4 15 8 17 14 8 4 -7 5 -17 3
-21z m105 -1 c-19 -19 -36 -30 -37 -25 -7 16 35 52 67 57 2 1 -11 -14 -30 -32z
m-1054 3 c3 -5 -1 -10 -9 -10 -9 0 -16 5 -16 10 0 6 4 10 9 10 6 0 13 -4 16
-10z m1697 -27 c-11 -16 -33 -39 -48 -53 -15 -14 -8 -1 17 27 48 58 62 69 31
26z m-497 -63 c-3 -5 -16 -10 -28 -9 -21 0 -21 1 -2 9 28 12 37 12 30 0z"/>
<path d="M651 1344 c0 -11 3 -14 6 -6 3 7 2 16 -1 19 -3 4 -6 -2 -5 -13z"/>
<path d="M691 1329 c-22 -18 -22 -19 -3 -19 11 0 23 7 26 16 9 24 4 25 -23 3z"/>
<path d="M679 1135 c-39 -21 -55 -67 -40 -114 14 -49 29 -61 94 -76 41 -9 53
-16 55 -33 2 -12 -1 -22 -7 -22 -6 0 -11 -5 -11 -12 0 -7 10 -3 22 9 20 21 20
23 4 47 -13 21 -25 26 -57 26 -54 0 -89 34 -89 87 0 21 6 45 13 54 31 41 100
51 164 24 45 -19 56 -12 14 9 -37 20 -127 20 -162 1z"/>
<path d="M728 1122 c-39 -5 -71 -49 -64 -87 9 -42 24 -53 81 -60 27 -3 57 -13
67 -22 10 -9 18 -11 18 -5 0 20 -44 42 -82 42 -44 0 -68 21 -68 59 0 44 31 65
87 59 27 -3 57 -9 68 -13 14 -6 17 -5 10 3 -13 14 -82 28 -117 24z"/>
<path d="M455 904 c-20 -30 -10 -48 11 -20 13 18 19 46 10 46 -2 0 -11 -12
-21 -26z"/>
<path d="M748 923 c13 -3 19 -9 16 -15 -4 -7 -2 -8 5 -4 17 11 3 26 -22 25
-22 -2 -22 -2 1 -6z"/>
<path d="M833 884 c0 -41 2 -45 9 -23 5 14 5 36 0 49 -7 18 -9 13 -9 -26z"/>
<path d="M411 894 c0 -11 3 -14 6 -6 3 7 2 16 -1 19 -3 4 -6 -2 -5 -13z"/>
<path d="M804 868 l-19 -23 23 19 c21 18 27 26 19 26 -2 0 -12 -10 -23 -22z"/>
<path d="M715 870 c11 -5 27 -9 35 -9 9 0 8 4 -5 9 -11 5 -27 9 -35 9 -9 0 -8
-4 5 -9z"/>
<path d="M614 846 c-14 -10 -11 -14 19 -30 18 -10 40 -17 48 -14 9 3 2 11 -19
22 -41 21 -37 30 6 14 24 -9 35 -9 43 -1 9 9 6 10 -11 6 -13 -3 -21 -2 -18 3
9 13 -49 13 -68 0z"/>
<path d="M750 837 c-18 -7 -21 -11 -9 -14 22 -5 66 12 48 19 -8 3 -25 1 -39
-5z"/>
<path d="M1220 430 c0 -5 5 -10 10 -10 6 0 10 5 10 10 0 6 -4 10 -10 10 -5 0
-10 -4 -10 -10z"/>
<path d="M398 1723 c17 -2 47 -2 65 0 17 2 3 4 -33 4 -36 0 -50 -2 -32 -4z"/>
<path d="M698 1723 c12 -2 32 -2 45 0 12 2 2 4 -23 4 -25 0 -35 -2 -22 -4z"/>
<path d="M756 1638 c-16 -51 -30 -98 -32 -104 -9 -44 -17 -54 -44 -54 -37 0
-47 -16 -18 -31 16 -9 23 -9 26 0 2 6 10 11 18 11 8 0 22 9 31 20 20 23 38 27
30 6 -4 -10 -1 -13 9 -9 7 3 14 13 14 24 0 22 29 39 68 39 65 0 129 -76 140
-165 5 -52 -27 -168 -60 -211 -12 -16 -16 -24 -7 -17 13 10 17 4 27 -43 6 -31
28 -85 48 -122 l37 -65 16 32 c17 31 16 34 -12 92 -17 36 -31 85 -34 120 -5
49 -8 57 -20 48 -7 -7 2 12 22 40 65 98 81 196 43 271 -28 55 -76 83 -129 76
-26 -4 -36 -2 -36 8 0 8 6 12 14 9 7 -3 21 -2 31 2 27 12 60 17 43 6 -8 -5 -9
-11 -3 -15 5 -3 15 1 22 9 9 11 8 20 -10 45 -18 25 -19 30 -5 30 9 0 14 -4 11
-9 -12 -18 54 -5 70 14 16 20 16 20 9 0 -5 -16 -4 -18 6 -7 18 17 29 15 29 -4
0 -13 3 -14 15 -4 8 6 19 9 25 5 17 -10 70 5 70 21 0 8 5 14 10 14 17 0 11
-18 -12 -34 -12 -9 -19 -18 -16 -21 3 -3 13 1 21 10 9 8 20 15 26 15 6 0 7 7
4 17 -4 11 -3 14 5 9 7 -4 12 -11 12 -16 0 -4 16 -24 35 -43 30 -30 35 -41 35
-83 0 -28 -9 -65 -20 -90 -19 -39 -79 -102 -126 -131 -13 -9 -14 -11 -2 -7 15
5 15 2 3 -33 -8 -21 -14 -56 -15 -78 0 -38 9 -65 94 -282 20 -51 33 -98 30
-106 -3 -8 -1 -18 5 -22 7 -3 8 0 5 9 -8 22 2 20 25 -5 l20 -21 -6 21 c-3 11
-11 21 -18 21 -7 0 -16 12 -19 26 -4 14 -15 45 -25 68 -10 22 -30 73 -44 111
-14 39 -28 78 -32 88 -4 9 -3 17 2 17 5 0 27 -46 48 -102 21 -57 42 -108 47
-114 4 -6 4 -15 0 -19 -4 -5 -2 -5 5 -2 8 5 -1 38 -30 110 -45 113 -58 209
-37 281 6 23 12 46 13 51 0 6 19 22 42 36 102 65 148 165 109 236 -10 19 -32
41 -48 49 -25 11 -26 13 -6 8 14 -3 33 -6 43 -5 12 0 17 -5 13 -15 -6 -16 5
-19 20 -4 7 7 18 5 35 -8 13 -11 31 -17 39 -15 9 3 11 1 5 -4 -5 -4 -10 -33
-10 -64 0 -73 -32 -116 -116 -158 -34 -17 -59 -31 -55 -31 3 0 -3 -18 -14 -40
-41 -79 -53 -311 -15 -280 10 8 19 8 35 0 28 -15 41 -53 35 -98 -5 -30 0 -45
25 -82 27 -40 30 -42 24 -16 -4 16 -13 41 -21 55 -9 18 -11 44 -7 82 6 50 4
58 -17 75 -34 28 -35 44 -1 35 26 -7 27 -9 29 -90 3 -125 13 -111 13 17 0 100
2 112 18 113 9 0 50 0 90 0 41 1 71 3 68 7 -8 8 100 60 141 68 24 5 40 0 63
-16 17 -12 48 -24 70 -27 33 -5 42 -1 64 22 14 15 24 30 22 34 -2 3 1 11 8 17
9 8 37 -6 111 -56 94 -65 100 -67 122 -53 31 21 138 14 176 -11 36 -24 28 -32
-13 -11 -41 21 -117 22 -156 2 -57 -29 -70 -120 -24 -162 23 -20 127 -47 135
-35 3 5 13 6 21 3 14 -5 15 -3 5 14 -13 25 -32 33 -75 33 -43 0 -68 20 -68 54
0 45 29 68 82 64 25 -3 54 -8 65 -12 20 -8 20 -7 1 8 -13 10 -39 16 -73 16
-60 0 -93 -25 -93 -70 0 -45 26 -69 81 -76 50 -7 68 -17 49 -29 -5 -3 -10 -1
-10 4 0 6 -17 11 -39 11 -70 0 -112 56 -89 122 20 56 110 75 180 39 53 -26 73
-9 32 27 -33 28 -53 80 -55 142 -1 20 -3 26 -6 14 -4 -20 -6 -19 -41 13 -49
45 -102 69 -203 93 -190 46 -237 63 -242 88 -4 20 -1 23 17 18 11 -3 74 -11
139 -16 139 -13 216 -35 282 -80 46 -31 48 -32 42 -10 -3 13 -3 19 2 14 4 -5
13 -31 19 -59 31 -124 124 -248 209 -276 76 -25 162 5 193 67 11 23 15 25 18
12 2 -10 9 -18 15 -19 7 0 2 -4 -11 -10 -13 -5 -20 -14 -17 -19 4 -7 17 -5 38
7 l31 18 0 123 c1 67 -1 122 -4 122 -3 0 -4 34 -2 76 2 51 0 74 -8 69 -6 -4
-13 6 -16 24 l-6 31 -33 -29 c-69 -61 -181 -67 -288 -16 -56 26 -168 119 -187
156 -9 16 -5 17 43 14 28 -2 74 -13 101 -25 77 -35 175 -33 251 5 l60 30 -430
3 -430 3 -95 -26 c-52 -13 -121 -30 -153 -36 -32 -6 -56 -14 -52 -17 4 -4 12
-7 18 -7 5 0 12 -6 15 -14 3 -9 0 -11 -8 -6 -9 5 -11 4 -6 -4 4 -6 16 -9 26
-6 24 8 50 -29 50 -70 0 -61 -48 -108 -138 -134 -75 -23 -104 -60 -150 -199
-27 -78 -41 -109 -50 -103 -9 5 -7 29 8 100 31 140 58 184 130 211 77 29 130
88 130 145 0 31 -17 67 -38 79 -12 7 -12 10 -1 17 12 7 11 11 -4 26 -17 17
-16 18 25 30 41 10 37 11 -58 12 -67 1 -104 -3 -112 -11 -10 -10 -17 -10 -32
0 -29 18 -169 16 -190 -3 -15 -14 -60 -11 -60 4 0 4 -47 8 -105 9 -59 1 -105
-2 -105 -7 0 -6 16 -7 35 -4 19 3 35 3 35 -1 0 -3 -12 -25 -27 -47 -24 -37
-30 -40 -60 -36 -34 6 -47 -5 -54 -48 -6 -29 -21 -43 -43 -37 -12 3 -17 1 -12
-6 11 -19 -8 -20 -26 -1 -14 15 -14 18 -2 23 8 3 14 2 14 -3 0 -4 10 -6 23 -4
20 4 54 62 95 165 2 4 -20 8 -50 8 l-53 0 -29 -92z m574 56 c0 -16 -6 -24 -17
-24 -15 0 -16 2 -3 10 8 5 10 10 4 10 -21 0 -23 26 -3 27 14 1 19 -5 19 -23z
m146 -11 c-8 -8 -36 10 -36 25 0 13 3 12 20 -3 11 -10 18 -20 16 -22z m-636 8
c0 -27 -41 -101 -56 -101 -10 0 -14 6 -11 14 3 8 11 32 18 55 8 29 18 41 31
41 10 0 18 -4 18 -9z m690 -17 c0 -8 -4 -14 -9 -14 -12 0 -32 26 -25 33 10 9
34 -4 34 -19z m375 10 c-128 -25 -130 -25 -120 -15 17 16 78 29 135 29 l55 0
-70 -14z m348 -2 c8 -9 20 -30 26 -45 18 -46 85 -139 134 -184 53 -49 108 -79
172 -93 61 -14 137 7 182 50 l32 30 -1 -34 c-1 -31 -3 -33 -14 -18 -12 16 -13
15 -14 -6 0 -12 5 -31 12 -41 17 -28 -17 -81 -72 -109 -54 -28 -124 -25 -186
6 -78 40 -162 149 -210 272 -8 19 -12 25 -10 13 2 -13 3 -23 1 -23 -1 0 -23
11 -48 25 -72 41 -175 58 -294 50 -56 -3 -133 -3 -172 1 -58 5 -70 10 -79 29
-10 22 -9 23 56 28 37 3 114 13 172 22 122 19 198 14 282 -19 l56 -23 -10 23
c-7 15 -30 28 -72 42 l-61 20 51 1 c37 1 55 -4 67 -17z m-863 -53 c16 -28 12
-77 -10 -119 -27 -53 -44 -61 -24 -10 16 39 15 80 -2 138 -5 18 -3 21 10 16 9
-4 21 -15 26 -25z m245 21 c-3 -5 -1 -10 4 -10 6 0 11 -7 11 -16 0 -14 -2 -14
-15 0 -17 17 -20 36 -4 36 5 0 7 -4 4 -10z m53 -57 c-17 -20 -26 -15 -21 11 4
20 8 22 18 13 9 -8 10 -16 3 -24z m-128 -21 c0 -25 -8 -47 -25 -67 l-25 -30
16 41 c8 23 15 48 13 55 -3 29 1 50 11 44 6 -3 10 -23 10 -43z m-680 18 c0
-11 -7 -20 -15 -20 -15 0 -21 21 -8 33 12 13 23 7 23 -13z m840 -20 c12 -12
18 -25 15 -30 -4 -6 3 -10 13 -10 40 0 43 -65 6 -109 -28 -34 -89 -55 -139
-49 -17 2 -37 -1 -44 -7 -42 -33 -82 -80 -109 -128 -33 -58 -82 -117 -82 -99
0 6 20 54 45 106 51 107 84 140 154 150 86 13 143 61 143 121 0 20 -8 45 -18
56 -23 25 -10 25 16 -1z m645 0 c4 -6 23 -21 43 -34 105 -65 217 -76 301 -31
55 30 71 27 71 -14 0 -85 -148 -131 -258 -81 -63 29 -207 170 -173 170 5 0 13
-5 16 -10z m-1470 -10 c-3 -5 -14 -10 -23 -10 -15 0 -15 2 -2 10 20 13 33 13
25 0z m94 -5 c53 -27 79 -132 49 -202 -11 -27 -12 -25 -18 33 -7 63 -25 97
-74 143 -14 14 -26 28 -26 33 0 13 38 9 69 -7z m800 -30 c1 -5 -6 -2 -15 7
-10 9 -13 21 -8 29 5 9 9 8 15 -7 4 -10 8 -23 8 -29z m438 -19 c62 -28 91 -51
80 -62 -3 -3 -25 5 -49 19 -56 32 -104 47 -203 63 l-80 13 95 -2 c79 -3 105
-8 157 -31z m-1483 9 c-4 -8 -8 -15 -10 -15 -2 0 -4 7 -4 15 0 8 4 15 10 15 5
0 7 -7 4 -15z m1086 -38 c0 -5 -7 -2 -15 7 -8 8 -15 23 -15 33 1 14 4 13 15
-7 8 -14 14 -29 15 -33z m-159 -10 l-20 -21 17 36 c10 21 18 29 20 20 2 -8 -5
-24 -17 -35z m174 -27 c-3 -4 2 -10 10 -14 22 -8 18 -51 -8 -81 -26 -31 -89
-43 -137 -26 -45 15 -83 -3 -164 -83 -63 -61 -87 -78 -85 -58 1 16 98 129 130
150 25 17 46 23 79 21 25 -1 58 -2 73 -1 37 3 87 52 87 87 0 15 4 24 10 20 6
-4 8 -10 5 -15z m35 5 c0 -8 -4 -15 -10 -15 -5 0 -7 7 -4 15 4 8 8 15 10 15 2
0 4 -7 4 -15z m27 -68 c2 -17 1 -19 -7 -7 -11 17 -14 47 -3 36 4 -3 8 -17 10
-29z m153 -29 c112 -41 198 -93 226 -136 16 -25 18 -25 25 -7 7 19 8 18 8 -2
1 -21 -4 -23 -44 -23 -35 0 -55 7 -94 35 -26 19 -75 46 -107 61 -91 40 -154
83 -154 106 0 15 4 18 18 13 9 -4 64 -25 122 -47z m193 -43 c26 -20 47 -42 47
-51 0 -12 -12 -5 -41 21 -23 20 -70 51 -105 67 -35 16 -64 31 -64 33 0 12 123
-42 163 -70z m-339 30 c-7 -18 7 -20 24 -3 9 9 12 8 12 -6 0 -9 -4 -14 -10
-11 -5 3 -10 -3 -10 -15 0 -30 -44 -70 -77 -70 -16 0 -45 8 -66 19 -43 22
-103 15 -145 -16 -34 -25 -92 -56 -111 -59 -26 -5 72 75 124 100 49 25 51 25
110 9 53 -14 64 -15 90 -2 16 8 36 27 43 42 14 28 25 38 16 12z m629 -140 c36
-13 62 -16 107 -12 33 4 62 3 65 -3 11 -17 -20 -51 -57 -62 -60 -18 -120 -3
-173 44 -41 36 -105 128 -105 152 0 5 26 -16 58 -46 33 -31 77 -62 105 -73z
m-587 78 c-10 -10 -19 5 -10 18 6 11 8 11 12 0 2 -7 1 -15 -2 -18z m797 -63
c-7 -27 -21 -25 -18 3 3 29 3 29 14 23 5 -3 7 -15 4 -26z m47 -15 c0 -25 -23
-35 -35 -15 -10 16 2 40 20 40 9 0 15 -9 15 -25z"/>
<path d="M2688 1313 c-19 -22 -33 -63 -21 -63 4 0 16 18 25 40 18 45 18 48 -4
23z"/>
<path d="M2730 1301 c0 -5 5 -13 10 -16 6 -3 10 -2 10 4 0 5 -4 13 -10 16 -5
3 -10 2 -10 -4z"/>
<path d="M1620 1715 c0 -8 7 -15 15 -15 8 0 15 4 15 9 0 6 24 12 53 14 49 3
48 3 -15 5 -55 2 -68 -1 -68 -13z"/>
<path d="M2783 1719 c20 -12 23 -39 5 -39 -9 0 -8 -3 2 -10 12 -8 13 -14 3
-41 -8 -20 -9 -38 -3 -49 5 -10 6 -20 3 -24 -3 -3 -1 -6 5 -6 7 0 12 3 13 8 0
4 1 44 3 90 l3 82 -26 0 c-23 -1 -24 -2 -8 -11z"/>
<path d="M1053 1664 c-4 -10 -10 -11 -24 -3 -15 7 -19 6 -19 -6 0 -11 11 -15
38 -15 136 -1 154 -211 29 -343 -20 -21 -29 -36 -22 -33 12 4 15 -5 15 -47 0
-29 7 -76 14 -106 10 -37 12 -61 5 -78 -5 -14 -8 -28 -5 -30 2 -2 14 26 26 64
12 37 27 74 33 82 9 12 9 13 0 7 -17 -9 -21 80 -7 142 3 16 1 21 -7 17 -6 -4
10 14 35 41 25 26 55 67 67 91 47 98 4 223 -78 223 -18 0 -33 -4 -33 -9 0 -14
-29 -21 -36 -9 -4 6 -3 8 4 4 6 -3 13 -2 16 3 3 5 -6 11 -20 14 -16 3 -28 -1
-31 -9z m142 -39 c25 -19 34 -130 14 -166 -13 -22 -14 -20 -20 42 -3 44 -12
76 -27 96 -12 17 -22 34 -22 37 0 11 35 5 55 -9z"/>
<path d="M2756 1645 c4 -8 13 -15 21 -15 13 0 13 3 3 15 -7 8 -16 15 -21 15
-5 0 -6 -7 -3 -15z"/>
<path d="M2695 1628 c-5 -25 -2 -54 7 -63 3 -4 6 14 6 39 -1 51 -5 58 -13 24z"/>
<path d="M1273 1619 c14 -8 22 -8 30 0 8 8 3 11 -18 11 -26 -1 -28 -2 -12 -11z"/>
<path d="M702 1613 c-7 -2 -17 -14 -23 -26 -11 -21 -10 -20 15 2 14 14 26 26
26 28 0 3 0 3 -18 -4z"/>
<path d="M1460 1610 c20 -13 33 -13 25 0 -3 6 -14 10 -23 10 -15 0 -15 -2 -2
-10z"/>
<path d="M1066 1591 c-20 -8 -20 -8 0 -13 23 -6 44 0 44 13 0 11 -17 11 -44 0z"/>
<path d="M1620 1561 c0 -5 5 -13 10 -16 6 -3 10 -2 10 4 0 5 -4 13 -10 16 -5
3 -10 2 -10 -4z"/>
<path d="M200 1445 c0 -60 2 -106 5 -103 8 7 8 199 0 206 -3 3 -5 -43 -5 -103z"/>
<path d="M864 1485 c-17 -13 -17 -14 -2 -15 9 0 20 5 23 10 4 6 11 8 16 5 5
-4 9 -1 9 4 0 16 -23 13 -46 -4z"/>
<path d="M490 1395 c-7 -9 -11 -17 -9 -20 3 -2 10 5 17 15 14 24 10 26 -8 5z"/>
<path d="M1959 1228 c-1 -7 -2 -22 -3 -32 -2 -31 -106 -39 -138 -10 -24 22
-80 21 -151 -4 -52 -17 -55 -20 -31 -25 15 -2 47 2 72 11 39 13 52 13 96 2 65
-17 156 -16 167 2 7 10 9 10 9 1 0 -7 8 -13 18 -13 32 0 82 -39 99 -77 9 -21
32 -69 50 -107 38 -78 40 -91 16 -104 -15 -9 -15 -11 -1 -26 13 -12 18 -13 27
-2 7 9 7 16 0 23 -8 8 -4 18 12 34 17 17 19 24 9 27 -25 9 -60 55 -72 95 -11
35 -10 44 11 81 20 38 20 39 2 17 l-21 -23 -57 50 c-32 27 -67 59 -77 71 -22
24 -35 27 -37 9z m226 -368 c3 -5 1 -10 -4 -10 -6 0 -11 5 -11 10 0 6 2 10 4
10 3 0 8 -4 11 -10z"/>
<path d="M347 1153 c-4 -3 -6 -18 -6 -32 1 -21 2 -22 6 -6 3 11 10 26 15 33
11 12 -3 18 -15 5z"/>
<path d="M1181 1108 c11 -29 31 -80 45 -114 13 -33 24 -66 24 -73 0 -7 4 -10
9 -7 10 7 -78 246 -91 246 -4 0 2 -24 13 -52z"/>
<path d="M552 1125 c-16 -19 -18 -25 -7 -25 8 0 19 9 25 21 17 30 7 33 -18 4z"/>
<path d="M1688 1136 c9 -5 25 -20 35 -33 18 -23 57 -32 57 -13 0 6 -11 10 -24
10 -14 0 -27 4 -30 9 -8 12 20 22 39 15 10 -4 15 0 15 10 0 13 -10 16 -55 14
-42 -2 -51 -5 -37 -12z"/>
<path d="M1440 1023 l5 -118 3 114 3 113 105 -4 c105 -4 106 -4 135 -36 39
-44 39 -89 0 -131 -27 -29 -34 -31 -95 -31 -72 0 -93 -15 -23 -17 70 -3 116
14 137 50 30 48 26 100 -9 139 l-29 33 -119 3 -118 4 5 -119z"/>
<path d="M1802 1053 l2 -88 3 83 4 84 104 -4 c93 -3 106 -5 129 -27 33 -31 43
-81 23 -120 -17 -33 -5 -44 13 -12 20 39 12 98 -19 133 l-29 33 -116 3 -116 4
2 -89z"/>
<path d="M1127 1066 c-15 -36 -27 -70 -27 -75 0 -5 -9 -30 -21 -56 -15 -34
-24 -44 -29 -34 -6 9 -11 5 -16 -14 -21 -88 45 10 88 128 19 51 34 82 36 71 4
-17 -15 -72 -40 -120 -7 -13 -6 -22 2 -30 9 -8 11 -7 9 4 -1 8 5 32 14 52 10
21 17 42 17 48 0 5 5 10 11 10 13 0 10 -14 -20 -87 -11 -29 -17 -53 -13 -53 5
0 16 23 27 52 14 40 20 48 25 33 4 -10 9 -14 12 -9 3 5 -6 40 -21 78 l-28 69
-26 -67z"/>
<path d="M2722 1108 c-16 -16 -15 -31 1 -22 6 4 4 -2 -7 -14 -10 -12 -16 -28
-12 -37 8 -22 31 -14 32 11 1 10 5 27 9 37 10 23 -7 41 -23 25z"/>
<path d="M1468 1013 c4 -127 12 -133 12 -9 l0 98 86 -3 c76 -4 88 -7 105 -28
24 -29 24 -62 2 -90 -14 -17 -30 -22 -75 -23 -32 -1 -60 1 -64 5 -4 4 18 7 49
7 62 0 87 16 87 55 0 42 -25 55 -101 55 l-69 0 -1 -67 c0 -38 -2 -80 -3 -95
-1 -16 2 -28 6 -28 4 0 8 41 8 90 l0 90 58 0 c71 0 98 -16 88 -53 -6 -24 -11
-27 -54 -28 -26 -1 -52 -1 -58 0 -15 2 -24 -23 -14 -39 5 -9 26 -11 70 -8 50
4 67 9 81 27 27 33 24 86 -6 116 -22 23 -32 25 -117 25 l-93 0 3 -97z"/>
<path d="M1832 1023 l2 -88 3 83 4 82 72 0 c40 0 83 -6 97 -13 34 -17 47 -59
30 -94 -23 -45 -23 -50 -1 -24 31 35 28 94 -5 120 -23 18 -41 21 -115 21 l-89
0 2 -87z"/>
<path d="M2356 1081 c-11 -12 -29 -21 -40 -22 -14 0 -16 -2 -6 -6 31 -11 89
-84 92 -116 2 -27 11 -36 48 -55 52 -27 99 -24 141 7 22 16 28 17 32 7 4 -9
-4 -17 -20 -21 -17 -4 -24 -11 -21 -23 4 -12 -2 -17 -18 -18 -17 -1 -21 2 -17
14 4 10 2 13 -5 8 -7 -4 -12 -17 -12 -30 0 -42 -92 -62 -138 -30 -20 13 -28
14 -53 4 -23 -10 -38 -10 -67 -1 -20 6 -55 10 -77 7 l-40 -4 -3 -53 c-2 -40 3
-62 17 -86 23 -36 88 -74 130 -75 l28 -1 -23 -41 c-12 -23 -40 -86 -62 -141
-22 -55 -50 -117 -62 -138 l-22 -37 52 0 51 0 28 62 c16 35 41 106 56 158 15
52 32 104 38 115 5 10 18 42 28 70 15 43 22 51 51 57 18 3 34 5 35 4 1 -1 -4
-23 -12 -48 -7 -26 -23 -93 -35 -150 -19 -90 -50 -195 -75 -251 -7 -16 -2 -18
51 -15 l59 3 27 81 c17 50 35 142 48 240 11 88 26 192 32 232 12 68 15 74 41
79 15 3 30 10 34 16 4 6 0 8 -11 4 -10 -4 -15 -3 -11 3 3 6 1 10 -6 10 -7 0
-9 10 -7 25 5 26 -6 35 -15 13 -3 -8 -6 -6 -6 5 -1 9 5 17 12 17 19 0 37 -21
37 -43 0 -10 4 -15 10 -12 13 8 4 -429 -11 -510 -6 -32 -19 -82 -30 -110 -10
-27 -19 -51 -19 -52 0 -2 31 -3 70 -3 l70 0 15 36 c24 58 45 178 45 262 0 43
-9 150 -20 238 -11 87 -20 182 -20 209 0 56 -9 95 -20 95 -5 0 -6 -8 -4 -17 3
-11 -8 -31 -30 -53 -20 -20 -36 -46 -37 -60 l-1 -25 -7 25 c-4 15 -3 28 3 32
7 5 7 8 1 8 -5 0 -2 5 7 10 15 9 17 34 8 100 0 3 -5 -2 -10 -10 -5 -8 -7 -25
-3 -38 9 -37 -30 -71 -41 -34 -3 10 -4 6 -3 -8 2 -21 -4 -26 -35 -34 -64 -16
-137 21 -198 103 l-25 33 -19 -21z m34 -41 c9 -16 8 -18 -5 -14 -8 4 -15 12
-15 20 0 20 7 17 20 -6z m360 -35 c-7 -8 -17 -15 -22 -15 -6 0 -5 7 2 15 7 8
17 15 22 15 6 0 5 -7 -2 -15z m-277 -44 c21 -12 53 -22 72 -24 37 -2 45 -17
20 -37 -31 -26 -135 5 -135 40 0 6 -7 25 -16 43 -16 31 -16 32 2 16 11 -10 36
-26 57 -38z m271 -13 c13 -68 31 -320 31 -433 0 -95 -5 -145 -18 -187 l-18
-58 -40 0 c-40 0 -41 1 -34 28 27 107 34 180 38 404 3 135 8 251 11 257 11 18
25 13 30 -11z m-170 -167 c-2 -3 -12 -6 -20 -7 -33 -5 -44 -14 -44 -35 0 -12
-3 -20 -6 -16 -11 11 6 57 21 57 8 0 15 7 15 15 0 13 3 13 20 3 10 -7 17 -14
14 -17z m-270 -28 c44 -48 89 -57 139 -25 22 13 41 21 44 18 9 -9 -6 -38 -17
-31 -6 4 -27 -3 -46 -14 -41 -24 -48 -26 -39 -8 4 6 -2 2 -12 -10 -10 -12 -31
-27 -48 -34 -29 -11 -29 -11 -7 -20 27 -10 29 -24 2 -26 -19 -2 -25 12 -21 45
1 6 -5 12 -13 12 -16 0 -76 65 -76 83 0 7 -3 21 -6 33 -5 18 -2 20 31 16 26
-3 46 -15 69 -39z m95 11 c14 -10 19 -20 13 -26 -12 -12 -86 18 -77 32 9 15
37 12 64 -6z m64 -9 c-3 -9 -8 -14 -10 -11 -3 3 -2 9 2 15 9 16 15 13 8 -4z
m-230 -92 c34 -36 24 -44 -16 -13 -26 20 -50 73 -39 85 3 3 10 -4 15 -17 4
-13 22 -38 40 -55z m317 61 c0 -49 -45 -346 -59 -393 -14 -48 -20 -56 -44 -59
-31 -4 -32 1 -11 59 8 24 28 102 43 174 16 72 34 143 40 158 6 16 11 39 11 53
0 13 5 24 10 24 6 0 10 -7 10 -16z m-157 -78 c4 -11 -1 -14 -21 -11 -38 4 -39
5 -17 15 28 12 32 12 38 -4z m-103 -36 c0 -5 -8 -10 -17 -10 -15 0 -16 2 -3
10 19 12 20 12 20 0z m26 -163 c-29 -83 -55 -158 -59 -165 -8 -11 -37 -18 -37
-8 0 5 87 217 116 283 39 88 29 38 -20 -110z"/>
<path d="M2285 690 c-8 -13 5 -13 25 0 13 8 13 10 -2 10 -9 0 -20 -4 -23 -10z"/>
<path d="M2222 1078 c-15 -15 -16 -55 -1 -63 5 -4 25 -9 42 -11 64 -9 78 -15
89 -39 6 -13 15 -22 19 -19 13 8 -8 42 -34 56 -12 6 -40 14 -62 17 -35 5 -40
9 -40 31 0 23 3 25 52 25 28 -1 49 3 47 7 -8 13 -99 9 -112 -4z"/>
<path d="M1862 1018 l2 -63 3 58 4 57 58 0 c67 0 94 -16 89 -51 -3 -22 -7 -24
-63 -25 -56 -1 -56 -1 -8 3 35 3 53 9 57 20 5 13 4 13 -8 4 -11 -9 -15 -8 -19
3 -4 9 1 17 11 19 9 3 -8 5 -39 6 -65 1 -70 -5 -62 -68 l6 -41 53 0 c29 0 56
5 59 10 4 7 -12 9 -49 5 -34 -3 -56 -1 -56 5 0 6 21 10 46 10 64 0 84 13 84
55 0 44 -20 55 -104 55 l-66 0 2 -62z m88 7 c0 -10 -10 -15 -30 -15 -38 0 -39
17 -2 23 15 2 28 5 30 6 1 0 2 -6 2 -14z"/>
<path d="M1751 1054 c13 -16 29 -19 29 -5 0 5 -9 11 -21 14 -16 4 -18 3 -8 -9z"/>
<path d="M2240 1051 c0 -9 71 -23 79 -16 2 3 -3 5 -12 5 -9 0 -17 5 -17 10 0
6 -11 10 -25 10 -14 0 -25 -4 -25 -9z"/>
<path d="M2787 1053 c-4 -3 -7 -11 -7 -17 0 -6 5 -5 12 2 6 6 9 14 7 17 -3 3
-9 2 -12 -2z"/>
<path d="M1520 1025 c0 -24 3 -25 54 -25 39 0 55 4 60 16 4 9 2 13 -5 8 -6 -4
-24 -8 -40 -9 -25 -2 -29 0 -24 16 4 11 2 19 -4 19 -6 0 -11 -9 -11 -20 0 -11
-4 -20 -9 -20 -5 0 -7 9 -4 20 3 11 0 20 -6 20 -6 0 -11 -11 -11 -25z"/>
<path d="M1580 1035 c0 -8 2 -15 4 -15 2 0 6 7 10 15 3 8 1 15 -4 15 -6 0 -10
-7 -10 -15z"/>
<path d="M1606 1034 c-5 -14 -4 -15 9 -4 17 14 19 20 6 20 -5 0 -12 -7 -15
-16z"/>
<path d="M2583 1028 c-18 -24 -24 -38 -16 -38 11 1 46 50 35 50 -5 0 -14 -6
-19 -12z"/>
<path d="M200 965 c0 -38 3 -65 7 -61 8 8 6 116 -2 124 -3 3 -5 -25 -5 -63z"/>
<path d="M1750 1022 c0 -5 7 -13 16 -16 10 -4 14 -1 12 6 -5 15 -28 23 -28 10z"/>
<path d="M2798 993 c-3 -16 -2 -62 2 -103 l7 -75 1 103 c2 102 -1 127 -10 75z"/>
<path d="M1203 969 c-7 -7 -13 -9 -14 -3 0 5 -8 -11 -18 -36 -11 -25 -17 -48
-14 -52 2 -5 24 -8 49 -8 45 0 54 10 33 40 -8 12 -9 10 -4 -7 6 -21 3 -23 -37
-23 -40 1 -42 2 -24 15 11 8 14 15 7 15 -7 0 -9 5 -6 10 4 6 11 8 16 5 5 -4 6
2 2 12 -6 16 -5 16 10 4 21 -17 26 -13 18 17 -5 18 -8 21 -18 11z"/>
<path d="M1857 923 c-3 -16 -2 -34 2 -40 4 -7 7 5 8 27 2 46 -2 52 -10 13z"/>
<path d="M2003 933 c-13 -2 -23 -9 -23 -14 0 -13 13 -11 36 6 10 8 17 14 14
13 -3 0 -15 -3 -27 -5z"/>
<path d="M1092 893 c-10 -34 -10 -36 3 -19 13 17 21 56 12 56 -2 0 -9 -17 -15
-37z"/>
<path d="M1890 920 c0 -13 50 -13 70 0 11 7 4 10 -27 10 -24 0 -43 -4 -43 -10z"/>
<path d="M1832 900 c0 -14 2 -19 5 -12 2 6 2 18 0 25 -3 6 -5 1 -5 -13z"/>
<path d="M2250 910 c0 -5 9 -10 20 -10 11 0 20 5 20 10 0 6 -9 10 -20 10 -11
0 -20 -4 -20 -10z"/>
<path d="M2320 911 c0 -6 4 -13 10 -16 6 -3 7 1 4 9 -7 18 -14 21 -14 7z"/>
<path d="M253 891 c-6 -10 -8 -23 -3 -30 5 -9 10 -4 14 14 9 34 4 40 -11 16z"/>
<path d="M2380 898 c0 -7 -7 -25 -14 -40 -18 -34 -3 -47 18 -16 18 26 21 54 6
63 -5 3 -10 0 -10 -7z"/>
<path d="M1575 884 c11 -8 26 -22 34 -32 13 -16 13 -16 8 0 -4 12 -2 15 8 11
8 -3 12 -10 8 -17 -3 -6 0 -6 8 2 19 18 -12 46 -53 48 -30 2 -31 1 -13 -12z
m50 -4 c3 -6 -1 -7 -9 -4 -18 7 -21 14 -7 14 6 0 13 -4 16 -10z"/>
<path d="M2294 891 c-5 -5 -18 -11 -29 -14 -15 -4 -14 -5 7 -6 15 0 30 4 33
10 9 14 1 21 -11 10z"/>
<path d="M2354 891 c4 -5 2 -11 -3 -13 -4 -1 -12 -14 -15 -28 -7 -23 -6 -23
13 5 23 34 26 45 10 45 -5 0 -8 -4 -5 -9z"/>
<path d="M1529 872 c5 -9 9 -20 10 -24 1 -5 3 -8 6 -8 3 0 17 0 33 1 26 1 26
1 -5 10 -18 5 -33 15 -33 21 0 9 3 9 12 0 7 -7 19 -12 28 -12 12 1 12 3 -3 11
-9 6 -26 12 -37 14 -16 3 -18 1 -11 -13z"/>
<path d="M1441 870 c0 -8 4 -24 9 -35 5 -13 9 -14 9 -5 0 8 -4 24 -9 35 -5 13
-9 14 -9 5z"/>
<path d="M1056 844 c-4 -14 -5 -29 -2 -31 3 -3 8 7 12 21 3 15 4 29 1 32 -2 3
-8 -7 -11 -22z"/>
<path d="M2230 841 c-33 -6 -34 -7 -10 -14 37 -10 47 -9 47 8 0 8 -1 14 -1 14
-1 -1 -17 -5 -36 -8z"/>
<path d="M2441 831 c-7 -5 -12 -13 -10 -19 2 -6 14 -2 28 9 23 19 9 27 -18 10z"/>
<path d="M1871 814 c0 -11 3 -14 6 -6 3 7 2 16 -1 19 -3 4 -6 -2 -5 -13z"/>
<path d="M2620 745 c-7 -9 -8 -15 -2 -15 5 0 12 7 16 15 3 8 4 15 2 15 -2 0
-9 -7 -16 -15z"/>
<path d="M388 662 c-9 -18 -12 -32 -8 -32 13 0 32 38 27 53 -2 6 -11 -3 -19
-21z"/>
<path d="M203 620 c0 -30 2 -43 4 -27 2 15 2 39 0 55 -2 15 -4 2 -4 -28z"/>
<path d="M2158 613 c7 -3 16 -2 19 1 4 3 -2 6 -13 5 -11 0 -14 -3 -6 -6z"/>
<path d="M2430 600 c-9 -6 -10 -10 -3 -10 6 0 15 5 18 10 8 12 4 12 -15 0z"/>
<path d="M332 403 c-9 -31 -9 -34 2 -22 18 18 30 59 18 59 -5 0 -14 -17 -20
-37z"/>
<path d="M283 314 c-24 -14 -43 -29 -43 -33 0 -4 -9 -17 -20 -29 l-21 -22 201
0 c110 0 200 3 200 8 0 11 -102 78 -139 90 -59 20 -131 15 -178 -14z m187 -22
c19 -8 38 -17 42 -20 4 -4 -50 -5 -120 -3 l-127 3 40 19 c46 22 112 22 165 1z"/>
<path d="M2800 285 c0 -19 -4 -35 -10 -35 -5 0 -10 -4 -10 -10 0 -5 7 -10 15
-10 11 0 15 12 15 45 0 25 -2 45 -5 45 -3 0 -5 -16 -5 -35z"/>
<path d="M1290 296 c0 -8 5 -18 10 -21 6 -3 10 1 10 9 0 8 -4 18 -10 21 -5 3
-10 -1 -10 -9z"/>
<path d="M836 252 c-9 -2 -16 -8 -16 -13 0 -5 29 -9 65 -9 36 0 65 4 65 9 0 9
-84 19 -114 13z"/>
<path d="M1707 250 c-16 -5 -36 -6 -44 -3 -11 4 -14 2 -9 -5 11 -18 86 -15 86
3 0 8 -1 15 -2 14 -2 0 -16 -5 -31 -9z"/>
<path d="M2532 249 c-33 -12 -27 -19 18 -19 22 0 40 4 40 9 0 13 -33 19 -58
10z"/>
<path d="M610 240 c0 -5 11 -10 25 -10 14 0 25 5 25 10 0 6 -11 10 -25 10 -14
0 -25 -4 -25 -10z"/>
<path d="M1495 240 c-13 -6 7 -9 60 -9 53 0 73 3 60 9 -11 5 -38 9 -60 9 -22
0 -49 -4 -60 -9z"/>
<path d="M1915 240 c-3 -5 3 -10 14 -10 12 0 21 5 21 10 0 6 -6 10 -14 10 -8
0 -18 -4 -21 -10z"/>
<path d="M2100 240 c-12 -8 -9 -10 13 -10 15 0 27 5 27 10 0 13 -20 13 -40 0z"/>
<path d="M2295 240 c-4 -6 7 -10 24 -10 17 0 31 5 31 10 0 6 -11 10 -24 10
-14 0 -28 -4 -31 -10z"/>
</g>
</svg>
